<?xml version="1.0" encoding="UTF-8" standalone="no"?>
<!-- Created with Inkscape (http://www.inkscape.org/) -->

<svg
   xmlns:dc="http://purl.org/dc/elements/1.1/"
   xmlns:cc="http://creativecommons.org/ns#"
   xmlns:rdf="http://www.w3.org/1999/02/22-rdf-syntax-ns#"
   xmlns:svg="http://www.w3.org/2000/svg"
   xmlns="http://www.w3.org/2000/svg"
   xmlns:sodipodi="http://sodipodi.sourceforge.net/DTD/sodipodi-0.dtd"
   xmlns:inkscape="http://www.inkscape.org/namespaces/inkscape"
   version="1.1"
   id="svg3680"
   width="500"
   height="500"
   viewBox="0 0 500 500"
   sodipodi:docname="HBL.svg"
   inkscape:version="0.92.0 r15299">
  <metadata
     id="metadata3686">
    <rdf:RDF>
      <cc:Work
         rdf:about="">
        <dc:format>image/svg+xml</dc:format>
        <dc:type
           rdf:resource="http://purl.org/dc/dcmitype/StillImage" />
        <dc:title></dc:title>
      </cc:Work>
    </rdf:RDF>
  </metadata>
  <defs
     id="defs3684" />
  <sodipodi:namedview
     pagecolor="#ffffff"
     bordercolor="#666666"
     borderopacity="1"
     objecttolerance="10"
     gridtolerance="10"
     guidetolerance="10"
     inkscape:pageopacity="0"
     inkscape:pageshadow="2"
     inkscape:window-width="1920"
     inkscape:window-height="986"
     id="namedview3682"
     showgrid="false"
     inkscape:zoom="1.526"
     inkscape:cx="250"
     inkscape:cy="278.95554"
     inkscape:window-x="-11"
     inkscape:window-y="-11"
     inkscape:window-maximized="1"
     inkscape:current-layer="svg3680" />
  <path
     style="fill:none;stroke:#000000"
     d="m 208.65531,401.56161 c 19.76767,-6.50928 32.56746,-27.54113 29.18481,-47.95476 -2.86627,-17.29739 -15.75982,-31.66373 -32.18481,-35.86119 l -4.5,-1.14999 -0.28738,-6.89255 -0.28739,-6.89255 5.42036,-5.35027 5.42036,-5.35026 3.03241,4.40746 c 4.44323,6.458 10.57922,11.60176 18.07826,15.15486 6.20464,2.93981 7.31882,3.13529 17.62338,3.09209 9.12186,-0.0382 11.93907,-0.43667 16.5,-2.33358 7.45277,-3.09964 14.43921,-8.56305 18.94362,-14.81396 l 3.74255,-5.19366 4.65691,4.72801 4.65692,4.72801 v 7.6381 7.6381 l -3.75,1.21287 c -9.81163,3.17342 -18.12305,9.62452 -23.76044,18.44223 -13.7941,21.57601 -5.79638,50.82571 16.97438,62.07963 22.64033,11.18946 48.55462,2.24325 59.42299,-20.51418 3.45875,-7.24232 3.6108,-8.01392 3.56003,-18.06545 -0.0423,-8.37484 -0.49625,-11.61318 -2.24287,-16 -6.10977,-15.34527 -20.55247,-26.17397 -36.95186,-27.70537 l -6.25223,-0.58384 v -8.13221 -8.13222 l -6.95108,-6.89782 c -3.8231,-3.7938 -6.75362,-7.21733 -6.51227,-7.60784 1.20995,-1.95775 2.10866,-14.17951 1.44482,-19.64856 -2.15817,-17.78015 -18.26105,-34.58687 -35.38755,-36.93432 l -4.59392,-0.62967 V 125.6747 23.310616 h -2.99528 -2.99529 l -0.25471,102.170964 -0.25472,102.17096 -5.72734,1.30071 c -11.91079,2.70501 -23.69426,11.28535 -29.07493,21.17141 -5.04379,9.2671 -6.89946,21.3468 -4.71395,30.68596 l 0.93606,4 -6.95992,7.02352 -6.95992,7.02351 v 8.50516 8.50515 l -6.75,1.06523 c -23.41966,3.6959 -39.91707,26.03572 -36.45456,49.36462 3.99586,26.92243 31.34212,43.78008 57.20456,35.26385 z"
     id="path3696" />
  <path
     style="fill:none;stroke:#000000"
     d="m 152.56435,313.41601 c 15.8607,-4.9364 26.87589,-17.35805 30.1499,-33.99951 0.66701,-3.39032 0.95644,-8.32822 0.6432,-10.97311 l -0.56954,-4.80888 8.4337,-8.38989 8.4337,-8.38989 V 236.0827 c 0,-9.79377 0.16713,-10.77208 1.84028,-10.77208 4.05125,0 14.13483,-6.2058 19.50038,-12.00124 13.00821,-14.05042 15.86853,-32.55267 7.65216,-49.49876 l -2.90912,-6 5.46586,-5.53679 5.46586,-5.53678 -0.25771,-61.963221 -0.25771,-61.963213 h -3 -3 l -0.25761,61.054485 -0.25761,61.054489 -4.01848,3.92394 c -2.92582,2.85698 -4.37869,3.6579 -5.3432,2.94552 -0.72859,-0.53814 -3.23918,-2.42631 -5.57908,-4.19593 -7.22385,-5.46326 -14.22096,-7.59631 -25.04402,-7.63458 -7.50736,-0.0265 -10.67864,0.43116 -15.1192,2.18216 -13.05213,5.14667 -22.7668,15.58576 -26.87153,28.87532 -7.95421,25.75273 9.47853,51.96915 37.00806,55.65499 l 7.98267,1.06877 v 8.06672 8.06673 l -5.82796,5.76714 -5.82796,5.76715 -3.63182,-5.88402 c -4.80708,-7.78809 -11.36281,-13.67783 -19.53265,-17.54836 -6.29439,-2.98202 -7.34282,-3.16452 -18.17961,-3.16452 -10.87941,0 -11.86704,0.17385 -18.30161,3.22161 -29.972855,14.19677 -34.217961,54.42385 -7.86158,74.49711 10.98204,8.36402 25.88559,10.99087 39.07223,6.88672 z"
     id="path3694" />
  <path
     style="fill:none;stroke:#000000"
     d="m 379.05536,311.50414 c 9.18123,-4.29642 16.78753,-11.77081 21.3283,-20.95842 3.17879,-6.43186 3.71973,-8.57454 4.08302,-16.17292 0.81091,-16.9609 -6.24498,-30.99815 -19.92092,-39.63139 -13.79972,-8.71137 -32.99705,-8.70136 -46.8196,0.0244 -5.84112,3.68734 -12.61859,10.99616 -15.43191,16.64176 l -2.3623,4.74052 -5.63832,-5.69777 -5.63832,-5.69777 v -8.50643 -8.50642 l 7.98267,-1.06877 c 19.84012,-2.65633 34.92983,-17.12623 38.28477,-36.71221 3.85342,-22.49612 -11.94945,-44.91118 -35.04285,-49.70536 -10.93755,-2.27062 -24.52495,0.72701 -33.26861,7.33968 -2.3399,1.76962 -4.85049,3.65779 -5.57908,4.19593 -0.96451,0.71238 -2.41738,-0.0885 -5.3432,-2.94552 l -4.01848,-3.92391 -0.25761,-61.054489 -0.25761,-61.054485 h -3 -3 l -0.25771,61.963213 -0.25771,61.963221 5.47911,5.53688 5.4791,5.53687 -2.87136,5.69252 c -4.03388,7.99722 -5.58332,18.02366 -4.10959,26.59319 1.63115,9.48489 5.0697,16.34726 11.64573,23.24154 5.55051,5.81913 15.59957,11.97257 19.55215,11.97257 1.67316,0 1.84028,0.97835 1.84028,10.77346 v 10.77346 l 7.89095,7.84467 7.89096,7.84468 0.38531,10.13186 c 0.33607,8.83706 0.79109,10.99558 3.5605,16.8904 3.94264,8.39209 11.50342,16.52003 19.16682,20.60457 7.98963,4.25843 12.09125,5.11387 22.74698,4.74414 7.73036,-0.26823 10.16297,-0.79519 15.75853,-3.41367 z"
     id="path3690" />
</svg>
