<svg xmlns="http://www.w3.org/2000/svg" data-name="Layer 1" viewBox="0 0 100 125" x="0px" y="0px"><title>Artboard 1</title><path d="M68.4,4.73v6.94c0,3.59-2.94,5-4.69,5.48a3.21,3.21,0,0,0-2.31,3.07V39.74L47.07,94.25,31.77,52.88c4-2.7,12.74-11.23,18-36.4a3.18,3.18,0,0,0,2.46-2.42l1-4.46h2.54l.18.18a3.18,3.18,0,0,0,2.26.94h.67A3.2,3.2,0,0,0,61.72,9l2.34-4.32H68.4m.8-2H63.59a1.2,1.2,0,0,0-1.06.63L60,8.09a1.2,1.2,0,0,1-1.06.63h-.67a1.2,1.2,0,0,1-.85-.35L57,8a1.2,1.2,0,0,0-.85-.35H52.62a1.2,1.2,0,0,0-1.17.93l-1.16,5.08a1.2,1.2,0,0,1-1.17.93,1.2,1.2,0,0,0-1.18,1c-5.49,26.72-14.87,34.27-17.76,36A1.2,1.2,0,0,0,29.67,53L45.76,96.49a1.2,1.2,0,0,0,1.83.56l.65-.47a1.2,1.2,0,0,0,.46-.67L63.36,40.15a1.2,1.2,0,0,0,0-.31V20.22a1.2,1.2,0,0,1,.87-1.15c1.87-.54,6.14-2.32,6.14-7.4V3.93a1.2,1.2,0,0,0-1.2-1.2Z"/><text x="0" y="115" fill="#000000" font-size="5px" font-weight="bold" font-family="'Helvetica Neue', Helvetica, Arial-Unicode, Arial, Sans-serif">Created by Eliricon</text><text x="0" y="120" fill="#000000" font-size="5px" font-weight="bold" font-family="'Helvetica Neue', Helvetica, Arial-Unicode, Arial, Sans-serif">from the Noun Project</text></svg>