<svg xmlns="http://www.w3.org/2000/svg" xmlns:xlink="http://www.w3.org/1999/xlink" version="1.1" x="0px" y="0px" viewBox="0 0 100 125" enable-background="new 0 0 100 100" xml:space="preserve"><g><g><path d="M17.5898438,78.2514648c-1.0708008,0-2.0751953-0.4145508-2.8286133-1.1679688    c-1.5595703-1.5600586-1.5595703-4.0976563,0-5.6567383l33.2338867-33.2338867l5.6567383,5.6567383L20.4179688,77.0834961    C19.6650391,77.8364258,18.6606445,78.2514648,17.5898438,78.2514648z M47.9951172,41.0209961L16.175293,72.8408203    c-0.7797852,0.7797852-0.7792969,2.0488281,0,2.8286133c0.7509766,0.75,2.0776367,0.75,2.8286133,0l31.8198242-31.8198242    L47.9951172,41.0209961z"/></g><g><path d="M60.8364258,53.8618164L37.9755859,31.0014648l15.0825195-15.0825195l22.8608398,22.8603516L60.8364258,53.8618164z     M40.8037109,31.0014648l20.0327148,20.0322266l12.2543945-12.2543945L53.0581055,18.7470703L40.8037109,31.0014648z"/></g><g><path d="M86.4067383,83.6669922H51.6806641v-2.9555664c0-2.7124023,2.2070313-4.9194336,4.9194336-4.9194336h24.887207    c2.7124023,0,4.9194336,2.2070313,4.9194336,4.9194336V83.6669922z M53.6806641,81.6669922h30.7260742v-0.9555664    c0-1.6098633-1.3095703-2.9194336-2.9194336-2.9194336h-24.887207c-1.6098633,0-2.9194336,1.3095703-2.9194336,2.9194336    V81.6669922z"/></g><g><path d="M82.0317383,77.7919922H56.0556641v-6.875h25.9760742V77.7919922z M58.0556641,75.7919922h21.9760742v-2.875H58.0556641    V75.7919922z"/></g></g><text x="0" y="115" fill="#000000" font-size="5px" font-weight="bold" font-family="'Helvetica Neue', Helvetica, Arial-Unicode, Arial, Sans-serif">Created by MRA Design</text><text x="0" y="120" fill="#000000" font-size="5px" font-weight="bold" font-family="'Helvetica Neue', Helvetica, Arial-Unicode, Arial, Sans-serif">from the Noun Project</text></svg>