<svg xmlns="http://www.w3.org/2000/svg" xmlns:xlink="http://www.w3.org/1999/xlink" version="1.1" x="0px" y="0px" viewBox="0 0 100 125" enable-background="new 0 0 100 100" xml:space="preserve"><g><path fill="#000000" d="M36.283,26.693c0.894,8.039,3.061,15.698,6.285,22.779c2.1-1.405,4.255-2.732,6.46-3.981   c-1.624-3.944-2.526-8.258-2.526-12.781c0-3.361,0.505-6.604,1.427-9.668C43.7,23.36,39.744,24.649,36.283,26.693z"/></g><g><path fill="#000000" d="M74.921,39.585c-7.111,1.817-13.914,4.412-20.308,7.696c4.154,7.258,11.305,12.586,19.756,14.286   c1.678-3.517,2.619-7.454,2.619-11.611C76.988,46.281,76.251,42.779,74.921,39.585z"/></g><g><path fill="#000000" d="M50.89,49.301c-2.203,1.255-4.354,2.591-6.446,4.008c4.237,8.057,9.892,15.257,16.628,21.269   c4.467-2.015,8.286-5.206,11.063-9.183C63.053,63.156,55.405,57.237,50.89,49.301z"/></g><g><path fill="#000000" d="M50.737,32.709c0,3.794,0.729,7.419,2.042,10.752c6.361-3.259,13.11-5.861,20.154-7.733   c-4.367-7.028-11.87-11.9-20.556-12.663C51.325,26.091,50.737,29.331,50.737,32.709z"/></g><g><path fill="#000000" d="M23.012,51.052c0.172,4.311,1.352,8.361,3.315,11.921c1.396-1.425,2.817-2.824,4.294-4.166   C28.586,55.775,25.999,53.146,23.012,51.052z"/></g><g><path fill="#000000" d="M40.957,55.787c-1.679,1.247-3.313,2.549-4.907,3.899c2.385,4.586,3.748,9.782,3.78,15.291   c3.136,1.274,6.563,1.983,10.157,1.983c2.26,0,4.454-0.282,6.552-0.805C50.314,70.27,45.031,63.4,40.957,55.787z"/></g><g><path fill="#000000" d="M28.723,66.59c1.888,2.41,4.175,4.49,6.764,6.141c-0.298-3.601-1.237-7.022-2.717-10.142   C31.378,63.879,30.038,65.222,28.723,66.59z"/></g><g><path fill="#000000" d="M33.834,56.014c1.689-1.412,3.426-2.768,5.205-4.07c-3.268-6.991-5.555-14.529-6.673-22.438   c-4.842,4.175-8.184,10.036-9.113,16.675C27.445,48.665,31.063,52.022,33.834,56.014z"/></g><text x="0" y="115" fill="#000000" font-size="5px" font-weight="bold" font-family="'Helvetica Neue', Helvetica, Arial-Unicode, Arial, Sans-serif">Created by Sophie Haskind</text><text x="0" y="120" fill="#000000" font-size="5px" font-weight="bold" font-family="'Helvetica Neue', Helvetica, Arial-Unicode, Arial, Sans-serif">from the Noun Project</text></svg>